<?xml version="1.0" encoding="utf-8"?>
<!-- Svg Vector Icons : http://www.onlinewebfonts.com/icon -->
<!DOCTYPE svg PUBLIC "-//W3C//DTD SVG 1.1//EN" "http://www.w3.org/Graphics/SVG/1.1/DTD/svg11.dtd">
<svg version="1.1" xmlns="http://www.w3.org/2000/svg" xmlns:xlink="http://www.w3.org/1999/xlink" x="0px" y="0px" viewBox="0 0 1000 1000" enable-background="new 0 0 1000 1000" xml:space="preserve">
<metadata> Svg Vector Icons : http://www.onlinewebfonts.com/icon </metadata>
<g><g><path d="M913.2,10.5H86.8C44.5,10.5,10,44.9,10,87.2v825.5c0,42.3,34.5,76.8,76.8,76.8h826.4c42.4,0,76.8-34.5,76.8-76.8V87.2C990,44.9,955.5,10.5,913.2,10.5z M861.1,97.9c18.2,0,32.9,14.7,32.9,32.9c0,18.2-14.7,32.9-32.9,32.9c-18.2,0-32.9-14.7-32.9-32.9C828.2,112.6,843,97.9,861.1,97.9z M743.2,97.9c18.2,0,32.9,14.7,32.9,32.9c0,18.2-14.7,32.9-32.9,32.9c-18.2,0-32.9-14.7-32.9-32.9C710.3,112.6,725,97.9,743.2,97.9z M902.2,901.8H97.8V245.4h804.5L902.2,901.8L902.2,901.8z M478.4,490.9L213.4,612.3v-58.5l204.8-87.8V465l-204.8-87.8v-58.5l264.9,121.4V490.9L478.4,490.9z M786.6,592.3h-276v-27.6h276V592.3z"/></g><g></g><g></g><g></g><g></g><g></g><g></g><g></g><g></g><g></g><g></g><g></g><g></g><g></g><g></g><g></g></g>
</svg>