<svg xmlns="http://www.w3.org/2000/svg" xmlns:xlink="http://www.w3.org/1999/xlink" version="1.1" x="0px" y="0px" viewBox="0 0 100 125" enable-background="new 0 0 100 100" xml:space="preserve"><path d="M85.732,19.697l-5.429-5.429c-1.188-1.188-2.383-4.964-2.854-7.267L77.041,5H67.5v2.5c0,1.888,0.363,3.719,1.045,5.42  L40.732,40.732c-0.112,0.112-0.21,0.235-0.298,0.365c-0.034,0.049-0.059,0.102-0.089,0.153c-0.037,0.064-0.08,0.125-0.112,0.193  l-8.563,18.351l-9.688,9.689c-0.977,0.976-0.977,2.559,0,3.535c0.262,0.262,0.569,0.448,0.895,0.57l-10.46,10.46  c-0.595-0.315-1.3-0.388-1.959-0.168l-3.75,1.25c-0.822,0.274-1.443,0.954-1.643,1.797s0.053,1.729,0.666,2.342l5,5  C11.207,94.742,11.845,95,12.5,95c0.191,0,0.384-0.022,0.574-0.067c0.843-0.199,1.523-0.82,1.797-1.643l1.25-3.75  c0.22-0.659,0.147-1.364-0.168-1.959l10.459-10.459c0.121,0.326,0.307,0.633,0.57,0.895c0.488,0.488,1.128,0.732,1.768,0.732  s1.28-0.244,1.768-0.732l9.689-9.688l18.351-8.563c0.067-0.031,0.128-0.074,0.192-0.111c0.051-0.03,0.104-0.055,0.154-0.089  c0.13-0.088,0.253-0.186,0.365-0.298L87.08,31.455c1.701,0.681,3.532,1.045,5.42,1.045H95v-10h-2.5  C89.943,22.5,87.54,21.504,85.732,19.697z M73.028,10c0.006,0.021,0.013,0.045,0.019,0.066c-0.069-0.015-0.138-0.024-0.208-0.034  c-0.003-0.011-0.008-0.021-0.011-0.032H73.028z M38.726,63.502c-0.055-0.555-0.284-1.095-0.709-1.52  c-0.424-0.425-0.965-0.654-1.52-0.709l6.758-14.482l9.952,9.952L38.726,63.502z M57.5,53.965L46.035,42.5l25.24-25.24  c0.164,0.181,0.319,0.369,0.493,0.543l10.429,10.429c0.174,0.174,0.362,0.328,0.543,0.493L57.5,53.965z"/></svg>
