<?xml version="1.0" encoding="UTF-8"?>
<svg width="1000px" height="563px" viewBox="0 0 1000 563" version="1.1" xmlns="http://www.w3.org/2000/svg" xmlns:xlink="http://www.w3.org/1999/xlink">
    <!-- Generator: Sketch 42 (36781) - http://www.bohemiancoding.com/sketch -->
    <title>Group</title>
    <desc>Created with Sketch.</desc>
    <defs></defs>
    <g id="Page-1" stroke="none" stroke-width="1" fill="none" fill-rule="evenodd">
        <g id="Group">
            <rect id="Rectangle" fill="#FFFFFF" x="0" y="0" width="1000" height="562.015504"></rect>
            <g id="dart" transform="translate(259.689922, 65.891473)" fill-rule="nonzero">
                <path d="M115.116279,118.992248 L87.5968992,91.4728682 L87.5968992,289.922481 L87.9844961,299.224806 C87.9844961,303.488372 88.7596899,308.527132 90.3100775,313.565891 L308.139535,390.310078 L362.403101,366.27907 L362.403101,366.27907 L115.116279,118.992248 Z" id="Shape" fill="#00C4B3"></path>
                <path d="M362.403101,366.27907 L308.139535,390.310078 L90.6976744,313.565891 C94.9612403,329.457364 103.875969,347.286822 113.953488,357.364341 L184.883721,427.906977 L343.023256,428.294574 L362.403101,366.27907 L362.403101,366.27907 Z" id="Shape" fill="#22D3C5"></path>
                <path d="M88.372093,91.4728682 L3.87596899,219.379845 C-3.10077519,226.744186 0.387596899,242.248062 11.627907,253.875969 L60.4651163,303.100775 L91.0852713,313.953488 C89.9224806,308.914729 88.7596899,303.875969 88.7596899,299.612403 L88.372093,290.310078 L88.372093,91.4728682 L88.372093,91.4728682 Z" id="Shape" fill="#0075C9"></path>
                <path d="M309.689922,93.7984496 C304.651163,92.6356589 299.612403,91.8604651 295.348837,91.4728682 L285.658915,91.0852713 L87.5968992,91.0852713 L362.403101,365.891473 L362.403101,365.891473 L386.434109,311.627907 L309.689922,93.7984496 Z" id="Shape" fill="#0075C9"></path>
                <path d="M309.302326,93.7984496 L309.302326,93.7984496 L309.302326,93.7984496 L309.302326,93.7984496 Z M353.488372,117.054264 C343.410853,106.976744 325.968992,97.6744186 309.689922,93.7984496 L386.434109,311.627907 L362.403101,365.891473 L362.403101,365.891473 L421.317829,346.899225 L421.317829,185.271318 L353.488372,117.054264 Z" id="Shape" fill="#00A8E1"></path>
                <path d="M298.837209,63.5658915 L249.612403,14.7286822 C238.372093,3.48837209 222.868217,-2.09610107e-13 215.116279,6.97674419 L87.2093023,91.4728682 L285.271318,91.4728682 L294.96124,91.8604651 C299.224806,91.8604651 304.263566,92.6356589 309.302326,94.1860465 L298.837209,63.5658915 Z" id="Shape" fill="#00C4B3"></path>
            </g>
        </g>
    </g>
</svg>